HIERARCHY
ROOT hip
{
  OFFSET 0 0 0
  CHANNELS 6 Xposition Yposition Zposition Zrotation Yrotation Xrotation
  JOINT abdomen
  {
    OFFSET 0 20.6881 -0.73152
    CHANNELS 3 Zrotation Xrotation Yrotation
    JOINT chest
    {
      OFFSET 0 11.7043 -0.48768
      CHANNELS 3 Zrotation Xrotation Yrotation
      JOINT neck
      {
        OFFSET 0 22.1894 -2.19456
        CHANNELS 3 Zrotation Xrotation Yrotation
        JOINT head
        {
          OFFSET -0.24384 7.07133 1.2192
          CHANNELS 3 Zrotation Xrotation Yrotation
          JOINT leftEye
          {
            OFFSET 4.14528 8.04674 8.04672
            CHANNELS 3 Zrotation Xrotation Yrotation
            End Site
            {
              OFFSET 1 0 0
            }
          }
          JOINT rightEye
          {
            OFFSET -3.6576 8.04674 8.04672
            CHANNELS 3 Zrotation Xrotation Yrotation
            End Site
            {
              OFFSET 1 0 0
            }
          }
        }
      }
      JOINT rCollar
      {
        OFFSET -2.68224 19.2634 -4.8768
        CHANNELS 3 Zrotation Xrotation Yrotation
        JOINT rShldr
        {
          OFFSET -8.77824 -1.95073 1.46304
          CHANNELS 3 Zrotation Xrotation Yrotation
          JOINT rForeArm
          {
            OFFSET -28.1742 -1.7115 0.48768
            CHANNELS 3 Zrotation Xrotation Yrotation
            JOINT rHand
            {
              OFFSET -22.5879 0.773209 7.07136
              CHANNELS 3 Zrotation Xrotation Yrotation
              JOINT rThumb1
              {
                OFFSET -1.2192 -0.487915 3.41376
                CHANNELS 3 Zrotation Xrotation Yrotation
                JOINT rThumb2
                {
                  OFFSET -3.37035 -0.52449 3.41376
                  CHANNELS 3 Zrotation Xrotation Yrotation
                  End Site
                  {
                    OFFSET -1.78271 -1.18214 1.43049
                  }
                }
              }
              JOINT rIndex1
              {
                OFFSET -7.75947 0.938293 5.60832
                CHANNELS 3 Zrotation Xrotation Yrotation
                JOINT rIndex2
                {
                  OFFSET -2.54057 -0.884171 1.56538
                  CHANNELS 3 Zrotation Xrotation Yrotation
                  End Site
                  {
                    OFFSET -1.62519 -0.234802 1.16502
                  }
                }
              }
              JOINT rMid1
              {
                OFFSET -8.24714 1.18213 3.41376
                CHANNELS 3 Zrotation Xrotation Yrotation
                JOINT rMid2
                {
                  OFFSET -3.10165 -0.590103 1.0647
                  CHANNELS 3 Zrotation Xrotation Yrotation
                  End Site
                  {
                    OFFSET -2.48547 -0.328903 0.83742
                  }
                }
              }
              JOINT rRing1
              {
                OFFSET -8.82822 0.546677 1.51678
                CHANNELS 3 Zrotation Xrotation Yrotation
                JOINT rRing2
                {
                  OFFSET -2.60934 -0.819778 -0.0198488
                  CHANNELS 3 Zrotation Xrotation Yrotation
                  End Site
                  {
                    OFFSET -2.33842 -0.294052 0.168128
                  }
                }
              }
              JOINT rPinky1
              {
                OFFSET -8.27202 -0.0477905 -0.4584
                CHANNELS 3 Zrotation Xrotation Yrotation
                JOINT rPinky2
                {
                  OFFSET -1.82734 -0.647385 -0.700984
                  CHANNELS 3 Zrotation Xrotation Yrotation
                  End Site
                  {
                    OFFSET -1.69225 -0.51767 -0.607171
                  }
                }
              }
            }
          }
        }
      }
      JOINT lCollar
      {
        OFFSET 2.68224 19.2634 -4.8768
        CHANNELS 3 Zrotation Xrotation Yrotation
        JOINT lShldr
        {
          OFFSET 8.77824 -1.95073 1.46304
          CHANNELS 3 Zrotation Xrotation Yrotation
          JOINT lForeArm
          {
            OFFSET 28.1742 -1.7115 0.48768
            CHANNELS 3 Zrotation Xrotation Yrotation
            JOINT lHand
            {
              OFFSET 22.5879 0.773209 7.07136
              CHANNELS 3 Zrotation Xrotation Yrotation
              JOINT lThumb1
              {
                OFFSET 1.2192 -0.487915 3.41376
                CHANNELS 3 Zrotation Xrotation Yrotation
                JOINT lThumb2
                {
                  OFFSET 3.37035 -0.52449 3.41376
                  CHANNELS 3 Zrotation Xrotation Yrotation
                  End Site
                  {
                    OFFSET 1.78271 -1.18214 1.43049
                  }
                }
              }
              JOINT lIndex1
              {
                OFFSET 7.75947 0.938293 5.60832
                CHANNELS 3 Zrotation Xrotation Yrotation
                JOINT lIndex2
                {
                  OFFSET 2.54057 -0.884171 1.56538
                  CHANNELS 3 Zrotation Xrotation Yrotation
                  End Site
                  {
                    OFFSET 1.62519 -0.234802 1.16502
                  }
                }
              }
              JOINT lMid1
              {
                OFFSET 8.24714 1.18213 3.41376
                CHANNELS 3 Zrotation Xrotation Yrotation
                JOINT lMid2
                {
                  OFFSET 3.10165 -0.590103 1.0647
                  CHANNELS 3 Zrotation Xrotation Yrotation
                  End Site
                  {
                    OFFSET 2.48547 -0.328903 0.83742
                  }
                }
              }
              JOINT lRing1
              {
                OFFSET 8.82822 0.546677 1.51678
                CHANNELS 3 Zrotation Xrotation Yrotation
                JOINT lRing2
                {
                  OFFSET 2.60934 -0.819778 -0.0198488
                  CHANNELS 3 Zrotation Xrotation Yrotation
                  End Site
                  {
                    OFFSET 2.33842 -0.294052 0.168128
                  }
                }
              }
              JOINT lPinky1
              {
                OFFSET 8.27202 -0.0477905 -0.4584
                CHANNELS 3 Zrotation Xrotation Yrotation
                JOINT lPinky2
                {
                  OFFSET 1.82734 -0.647385 -0.700984
                  CHANNELS 3 Zrotation Xrotation Yrotation
                  End Site
                  {
                    OFFSET 1.69225 -0.51767 -0.607171
                  }
                }
              }
            }
          }
        }
      }
    }
  }
  JOINT rButtock
  {
    OFFSET -8.77824 4.35084 1.2192
    CHANNELS 3 Zrotation Xrotation Yrotation
    JOINT rThigh
    {
      OFFSET 0 -1.70687 -2.19456
      CHANNELS 3 Zrotation Xrotation Yrotation
      JOINT rShin
      {
        OFFSET 0 -36.8199 0.73152
        CHANNELS 3 Zrotation Xrotation Yrotation
        JOINT rFoot
        {
          OFFSET 0.73152 -45.1104 -5.12064
          CHANNELS 3 Zrotation Xrotation Yrotation
          End Site
          {
            OFFSET -1.1221 -3.69964 12.103
          }
        }
      }
    }
  }
  JOINT lButtock
  {
    OFFSET 8.77824 4.35084 1.2192
    CHANNELS 3 Zrotation Xrotation Yrotation
    JOINT lThigh
    {
      OFFSET 0 -1.70687 -2.19456
      CHANNELS 3 Zrotation Xrotation Yrotation
      JOINT lShin
      {
        OFFSET 0 -36.8199 0.73152
        CHANNELS 3 Zrotation Xrotation Yrotation
        JOINT lFoot
        {
          OFFSET -0.73152 -45.1104 -5.12064
          CHANNELS 3 Zrotation Xrotation Yrotation
          End Site
          {
            OFFSET 1.1221 -3.69964 12.103
          }
        }
      }
    }
  }
}
MOTION
Frames:	4
Frame Time:	0.03333
0.08469999663702765 55.56979775428772 1.2729999976727413 9.547700313386445 31.65500006694975 7.872200268468958 -16.412999217054 12.052200054662245 3.0657600775944305 4.973240027151997 -8.963989785596217 0.8552499809685216 -8.999450420219631 18.37050069732839 -12.435599917116217 10.532400148290721 -28.983999950502906 -22.18599975450113 -0.0 0.0 0.0 -0.0 0.0 0.0 6.093160152118283e-14 1.9123499965880427e-13 -3.6248401121299065e-13 33.29250035441987 16.69419981273072 39.70410138114839 -13.525200358614487 -6.5775298004434015 24.60350081499754 -0.4448699908389265 18.617099554669824 2.713620069980903 -3.90410005987299e-10 1.9469400215752217e-10 -4.820579873106717e-10 -6.834709857770359e-10 2.7927498976335046e-10 -8.234370095940311e-10 -3.904039927511044e-10 1.9469200188680455e-10 -4.820640005468663e-10 7.730910121524428 5.474879855648998 0.41731399283890674 -3.90410999910637e-10 1.9469099553942486e-10 -4.820669823168801e-10 2.90554006136521 0.9651829962377875 0.10290200252939893 -3.904050115225258e-10 1.946900016160869e-10 -4.820599751573475e-10 10.278599710243157 0.7318009818271524 0.025912300303053633 -3.904140065287343e-10 1.9469099553942486e-10 -4.820579873106717e-10 2.221669932038622 -0.7334870246959406 -0.20891999872313852 6.072869774991416e-14 1.9122599708169534e-13 -3.6268299000623405e-13 -112.17499711667911 49.67529989005866 50.674699999604094 28.022500560661868 -40.29430144242378 -84.45069920008542 3.7911400412715364 -47.07260166531194 8.690399728202186 -4.4293701564016967e-10 -3.8733001149955333e-10 -1.638050017489844e-10 -7.471520019131315e-10 -5.752569860029267e-10 -3.171629995331163e-10 -4.4295500565258674e-10 -3.8734300704719713e-10 -1.6379500039539619e-10 -7.730910121524428 5.474879855648998 -0.41731399283890674 -4.4293701564016967e-10 -3.8733798773434043e-10 -1.6380199513088708e-10 -2.90554006136521 0.9651829962377875 -0.10290200252939893 -4.429460106463782e-10 -3.873359998876645e-10 -1.6380900229041966e-10 -10.278599710243157 0.7318009818271524 -0.025912300303053633 -4.429300084806371e-10 -3.8733199934622923e-10 -1.638110025611373e-10 -2.221669932038622 -0.7334870246959406 0.20891999872313852 -2.0321699793705798e-16 0.0 -3.882510030490358e-19 -61.29249885686114 -53.99730016287016 -52.857601137583494 -2.0243199402641547 69.98969974592936 2.5780100791048848 1.8401598975506281 -1.328320035301859 12.401899763751373 2.0321699793705798e-16 0.0 3.882510030490358e-19 15.414200164155526 12.179600158155907 1.4592499592142432 -0.17379800541238258 27.816100781680547 -2.463059916364274 4.121809989559363 -11.91719965816965 30.077701066824122
0.04662999779156962 55.517297983169556 1.003999998283689 9.397799859219468 31.756998696920135 7.885199826006784 -16.091700288307432 12.184499965111746 2.944010034648249 4.92366992925063 -9.036119998326136 0.8336740003498331 -8.952089888514763 18.39130033089837 -12.435500025599605 10.54459971992201 -29.24970113940557 -22.174400385743155 -0.0 0.0 0.0 -0.0 0.0 0.0 9.824019805144255e-15 3.4243701305582245e-14 4.4261900753868244e-13 33.05580014873308 16.678999226732856 39.79360076493765 -13.533699675262922 -6.584160206580191 24.620499448294407 -0.44005398710255345 18.520399443948076 2.6984899203088553 -3.3226499375512514e-09 4.5041300881128347e-10 -3.223610048971156e-09 -5.786849878386081e-09 4.80600001166222e-10 -5.519150144664665e-09 -3.3226499375512514e-09 4.5038299232647715e-10 -3.2236199882045357e-09 7.730910121524428 5.474879855648998 0.41731399283890674 -3.3226499375512514e-09 4.5041102096460757e-10 -3.2236199882045357e-09 2.90554006136521 0.9651829962377875 0.10290200252939893 -3.3226499375512514e-09 4.5040898342176475e-10 -3.223610048971156e-09 10.278599710243157 0.7318009818271524 0.025912300303053633 -3.3226600755692986e-09 4.5040997734510273e-10 -3.223610048971156e-09 2.221669932038622 -0.7334870246959406 -0.20891999872313852 9.682399833927232e-15 3.423700093737684e-14 4.4239799548394325e-13 -112.20700338312979 49.85359856324726 50.728501399696285 28.024100532474943 -40.285200215354735 -84.43490097253517 3.7676898674167667 -46.96760116720134 8.658320037217928 -2.7140700813659637e-09 -2.6072700369324326e-09 -9.130049578518936e-10 -4.647030123927313e-09 -4.259070039575745e-09 -1.6712200719589937e-09 -2.714089959832723e-09 -2.6072700369324326e-09 -9.129910429251622e-10 -7.730910121524428 5.474879855648998 -0.41731399283890674 -2.7140700813659637e-09 -2.6072700369324326e-09 -9.130029700052176e-10 -2.90554006136521 0.9651829962377875 -0.10290200252939893 -2.714080020599343e-09 -2.6072700369324326e-09 -9.13012014707593e-10 -10.278599710243157 0.7318009818271524 -0.025912300303053633 -2.7140700813659637e-09 -2.6072700369324326e-09 -9.130179782476208e-10 -2.221669932038622 -0.7334870246959406 0.20891999872313852 -2.0321699793705798e-16 0.0 -3.882510030490358e-19 -61.25370338237546 -54.21120119710745 -52.99890067603813 -2.024329972104498 70.002902501595 2.5784800814971462 1.7377300051671798 -1.1042399914888408 11.802600182954238 2.0321699793705798e-16 0.0 3.882510030490358e-19 15.69339951440543 11.218800008931153 1.4869099841969733 -0.15821000628231932 29.18510121023559 -2.510869959893894 4.401989898841987 -12.317799644501006 30.104499314032665
-0.009250002790395229 55.43990135192871 0.6350000057864236 9.206200246395916 31.970401127348016 7.89650037398857 -15.66199942724359 12.363199911914082 2.778180085232921 4.859560066153597 -9.113330164251254 0.8039389852415941 -8.8859599969707 18.434100003784962 -12.441800021335295 10.582299802819541 -29.620399411324257 -22.165599686997595 -0.0 0.0 0.0 -0.0 0.0 0.0 -6.712579922199708e-14 -1.0098099746698486e-13 1.157870021925154e-12 32.774300732280174 16.6086995047005 39.871300996935716 -13.54929982732723 -6.596379841892167 24.651499969389803 -0.43524201211057373 18.42340051245014 2.6833100383219133 -5.6996998971286345e-09 6.669220131115453e-10 -5.441810186752858e-09 -9.923960355993102e-09 6.640389893812994e-10 -9.319709831083289e-09 -5.6996998971286345e-09 6.668720187676461e-10 -5.441810186752858e-09 7.730910121524428 5.474879855648998 0.41731399283890674 -5.6996998971286345e-09 6.669210191882073e-10 -5.441820125986237e-09 2.90554006136521 0.9651829962377875 0.10290200252939893 -5.699689957895255e-09 6.669220131115453e-10 -5.441810186752858e-09 10.278599710243157 0.7318009818271524 0.025912300303053633 -5.6997098363620134e-09 6.669220131115453e-10 -5.441810186752858e-09 2.221669932038622 -0.7334870246959406 -0.20891999872313852 -6.720730166368077e-14 -1.0098500130855623e-13 1.157619988085449e-12 -112.25099663157384 50.11369899703052 50.81510136818288 28.024899664607837 -40.28060008294873 -84.4269028210171 3.7293998269296753 -46.79550089068452 8.605900042885374 -4.617840185768846e-09 -4.4578399971018135e-09 -1.5595300240950463e-09 -7.91747960533838e-09 -7.338190073568693e-09 -2.835069910959556e-09 -4.617840185768846e-09 -4.457830057868434e-09 -1.559519985469333e-09 -7.730910121524428 5.474879855648998 -0.41731399283890674 -4.617840185768846e-09 -4.4578399971018135e-09 -1.5595300240950463e-09 -2.90554006136521 0.9651829962377875 -0.10290200252939893 -4.617850125002226e-09 -4.4578399971018135e-09 -1.5595399633284259e-09 -10.278599710243157 0.7318009818271524 -0.025912300303053633 -4.617840185768846e-09 -4.4578399971018135e-09 -1.5595500019541394e-09 -2.221669932038622 -0.7334870246959406 0.20891999872313852 -2.0321699793705798e-16 0.0 -3.882510030490358e-19 -61.18419937738141 -54.4703010081773 -53.040001339368686 -2.0189499174726437 69.98030140563142 2.573700016295195 1.6454499873337822 -0.824606977587494 11.150800353101799 2.0321699793705798e-16 0.0 3.882510030490358e-19 16.060100418112366 9.89320970141977 1.4466499677428621 -0.13848300589672088 31.099500781752614 -2.577229943435622 4.676899890293123 -12.707099936624223 30.110800163542002
-0.08296000526115677 55.32879829406738 0.16400000495195854 8.956499629397651 32.28240075353961 7.892000133099178 -15.080700810004021 12.6087998540894 2.5309199802024662 4.775559838419841 -9.158869596768668 0.7546349979135927 -8.805910179898149 18.52580041603426 -12.452099946603676 10.679700007931217 -30.225301454788095 -22.143900176004465 -0.0 0.0 0.0 -0.0 0.0 0.0 -1.0388100418282841e-13 -1.6923699623460454e-13 1.122920027800317e-12 32.39140032740926 16.4824007692105 39.97019872102292 -13.593900108833768 -6.631449875072421 24.740500749369655 -0.42936599503152645 18.30409930576482 2.664680057030469 -4.8777400067033085e-09 1.529379955992113e-09 -4.9923501019418405e-09 -8.496990185658429e-09 2.220939986855115e-09 -8.557830221021474e-09 -4.8777400067033085e-09 1.5293599781330202e-09 -4.99236004117522e-09 7.730910121524428 5.474879855648998 0.41731399283890674 -4.877749945936688e-09 1.5293700167587335e-09 -4.9923501019418405e-09 2.90554006136521 0.9651829962377875 0.10290200252939893 -4.8777400067033085e-09 1.5293899946178263e-09 -4.99236004117522e-09 10.278599710243157 0.7318009818271524 0.025912300303053633 -4.877749945936688e-09 1.5293899946178263e-09 -4.9923501019418405e-09 2.221669932038622 -0.7334870246959406 -0.20891999872313852 -1.0399300255114731e-13 -1.692439968909278e-13 1.122669993960612e-12 -112.27999761478972 50.457599021740656 50.894000298380284 28.025799542030985 -40.27579845996222 -84.41809870717695 3.6560499985460853 -46.461200696852835 8.505070229036706 -4.031500159409025e-09 -3.9025898927532975e-09 -1.4486099686410145e-09 -6.912650145378293e-09 -6.4368801146728745e-09 -2.620160029917734e-09 -4.031510098642405e-09 -3.9025898927532975e-09 -1.448600029407635e-09 -7.730910121524428 5.474879855648998 -0.41731399283890674 -4.031500159409025e-09 -3.9025898927532975e-09 -1.4486099686410145e-09 -2.90554006136521 0.9651829962377875 -0.10290200252939893 -4.031510098642405e-09 -3.9025898927532975e-09 -1.4486099686410145e-09 -10.278599710243157 0.7318009818271524 -0.025912300303053633 -4.031500159409025e-09 -3.9025898927532975e-09 -1.448620007266728e-09 -2.221669932038622 -0.7334870246959406 0.20891999872313852 -2.0321699793705798e-16 0.0 -3.882510030490358e-19 -61.07210231272316 -54.763801067001914 -52.875301572817584 -2.0077599331780474 69.90779894759174 2.5627200603175764 1.5976899962841737 -0.5067009986719809 10.582000128269708 2.0321699793705798e-16 0.0 3.882510030490358e-19 16.531899150125582 8.13856996213664 1.3203800471134248 -0.11147699820744583 33.702099968756364 -2.6727800210558694 4.897199958009068 -12.999700118025693 30.106200031135998
